<?xml version="1.0" encoding="UTF-8" standalone="no"?>
<svg
   shape-rendering="geometricPrecision"
   text-rendering="geometricPrecision"
   image-rendering="optimizeQuality"
   fill-rule="evenodd"
   clip-rule="evenodd"
   viewBox="0 0 600 599.99999"
   version="1.1"
   id="svg4"
   sodipodi:docname="discord.svg"
   width="600"
   height="600"
   inkscape:version="1.1.1 (3bf5ae0d25, 2021-09-20)"
   xmlns:inkscape="http://www.inkscape.org/namespaces/inkscape"
   xmlns:sodipodi="http://sodipodi.sourceforge.net/DTD/sodipodi-0.dtd"
   xmlns="http://www.w3.org/2000/svg"
   xmlns:svg="http://www.w3.org/2000/svg">
  <defs
     id="defs8" />
  <sodipodi:namedview
     id="namedview6"
     pagecolor="#ffffff"
     bordercolor="#666666"
     borderopacity="1.0"
     inkscape:pageshadow="2"
     inkscape:pageopacity="0.0"
     inkscape:pagecheckerboard="true"
     showgrid="false"
     inkscape:zoom="0.51660156"
     inkscape:cx="465.54253"
     inkscape:cy="244.86956"
     inkscape:window-width="1920"
     inkscape:window-height="1017"
     inkscape:window-x="-8"
     inkscape:window-y="-8"
     inkscape:window-maximized="1"
     inkscape:current-layer="svg4" />
  <path
     fill="#ffffff"
     d="m 422.186,482.29436 c 0,0 -15.794,-18.865 -28.956,-35.099 57.473,-16.232 79.41,-51.77 79.41,-51.77 -17.989,11.846 -35.099,20.182 -50.454,25.885 -21.938,9.213 -42.997,14.917 -63.617,18.866 -42.118,7.898 -80.726,5.703 -113.631,-0.438 -25.008,-4.827 -46.506,-11.407 -64.494,-18.867 -10.09101,-3.947 -21.05901,-8.774 -32.02701,-14.917 -1.316,-0.877 -2.633,-1.316 -3.948,-2.193 -0.877,-0.438 -1.316,-0.878 -1.755,-0.878 -7.89799,-4.388 -12.28499,-7.458 -12.28499,-7.458 0,0 21.05999,34.659 76.779,51.331 -13.163,16.673 -29.395,35.977 -29.395,35.977 -96.959,-3.072 -133.813004,-66.249 -133.813004,-66.249 0,-139.955 63.177004,-253.585 63.177004,-253.585 63.17699,-46.944 122.845,-45.628 122.845,-45.628 l 4.388,5.264 c -78.97101,22.376 -114.949,57.03601 -114.949,57.03601 0,0 9.653,-5.265 25.88599,-12.28501 46.94501,-20.621 84.23601,-25.885 99.59201,-27.64 2.633,-0.439 4.827,-0.878 7.458,-0.878 26.763,-3.51 57.036,-4.387 88.624,-0.878 41.68,4.826 86.43,17.111 132.058,41.68001 0,0 -34.66,-32.90601 -109.244,-55.28101 l 6.143,-7.019 c 0,0 60.105,-1.317 122.844,45.628 0,0 63.178,113.631 63.178,253.585 0,-0.438 -36.854,62.739 -133.813,65.81 z m -43.874,-203.133 c -25.006,0 -44.75,21.498 -44.75,48.262 0,26.763 20.182,48.26 44.75,48.26 25.008,0 44.752,-21.497 44.752,-48.26 0,-26.764 -20.182,-48.262 -44.752,-48.262 z m -160.135,0 c -25.008,0 -44.75101,21.498 -44.75101,48.262 0,26.763 20.18201,48.26 44.75101,48.26 25.007,0 44.75,-21.497 44.75,-48.26 0.439,-26.763 -19.742,-48.262 -44.75,-48.262 z"
     id="path2" />
</svg>
