<?xml version="1.0" encoding="UTF-8" standalone="no"?>
<!-- Uploaded to: SVG Repo, www.svgrepo.com, Transformed by: SVG Repo Mixer Tools -->

<svg
   fill="#ffffff"
   width="800"
   height="800"
   viewBox="0 0 32 32"
   version="1.1"
   stroke="#ffffff"
   id="svg9"
   sodipodi:docname="steam.svg"
   inkscape:export-filename="E:\Desktop - SSD\steam icon.png"
   inkscape:export-xdpi="61.439999"
   inkscape:export-ydpi="61.439999"
   inkscape:version="1.1.1 (3bf5ae0d25, 2021-09-20)"
   xmlns:inkscape="http://www.inkscape.org/namespaces/inkscape"
   xmlns:sodipodi="http://sodipodi.sourceforge.net/DTD/sodipodi-0.dtd"
   xmlns="http://www.w3.org/2000/svg"
   xmlns:svg="http://www.w3.org/2000/svg">
  <defs
     id="defs13" />
  <sodipodi:namedview
     id="namedview11"
     pagecolor="#ffffff"
     bordercolor="#666666"
     borderopacity="1.0"
     inkscape:pageshadow="2"
     inkscape:pageopacity="0.0"
     inkscape:pagecheckerboard="true"
     showgrid="false"
     inkscape:zoom="1.04"
     inkscape:cx="399.51923"
     inkscape:cy="476.44231"
     inkscape:window-width="1920"
     inkscape:window-height="1017"
     inkscape:window-x="-8"
     inkscape:window-y="-8"
     inkscape:window-maximized="1"
     inkscape:current-layer="svg9" />
  <g
     id="SVGRepo_bgCarrier"
     stroke-width="0" />
  <g
     id="SVGRepo_tracerCarrier"
     stroke-linecap="round"
     stroke-linejoin="round" />
  <g
     id="SVGRepo_iconCarrier">
    <title
       id="title4">steam</title>
    <path
       d="m 18.102,12.129 c 0,0 0,0 0,-10e-4 0,-1.564 1.268,-2.831 2.831,-2.831 1.563,0 2.831,1.268 2.831,2.831 0,1.564 -1.267,2.831 -2.831,2.831 0,0 0,0 -0.001,0 v 0 c 0,0 0,0 -10e-4,0 -1.563,0 -2.83,-1.267 -2.83,-2.83 0,0 0,0 0,-10e-4 v 0 z m 6.589,0.006 c 0,-2.081 -1.687,-3.768 -3.768,-3.768 -2.081,0 -3.768,1.687 -3.768,3.768 0,2.081 1.687,3.768 3.768,3.768 v 0 c 2.08,-0.003 3.765,-1.688 3.768,-3.767 v 0 z M 10.427,23.76 8.586,22.998 c 0.524,1.078 1.611,1.808 2.868,1.808 1.317,0 2.448,-0.801 2.93,-1.943 l 0.008,-0.021 c 0.155,-0.362 0.246,-0.784 0.246,-1.226 0,-1.757 -1.424,-3.181 -3.181,-3.181 -0.405,0 -0.792,0.076 -1.148,0.213 l 0.022,-0.007 1.903,0.787 c 0.852,0.364 1.439,1.196 1.439,2.164 0,1.296 -1.051,2.347 -2.347,2.347 -0.324,0 -0.632,-0.066 -0.913,-0.184 l 0.015,0.006 z M 15.974,1.004 C 8.117,1.005 1.673,7.05 1.036,14.742 l -0.004,0.054 8.038,3.322 c 0.668,-0.462 1.495,-0.737 2.387,-0.737 10e-4,0 0.002,0 0.002,0 v 0 c 0.079,0 0.156,0.005 0.235,0.008 l 3.575,-5.176 v -0.074 c 0.003,-3.12 2.533,-5.648 5.653,-5.648 3.122,0 5.653,2.531 5.653,5.653 0,3.122 -2.531,5.653 -5.653,5.653 h -0.131 l -5.094,3.638 c 0,0.065 0.005,0.131 0.005,0.199 0,0.001 0,0.002 0,0.003 0,2.342 -1.899,4.241 -4.241,4.241 -2.047,0 -3.756,-1.451 -4.153,-3.38 L 7.303,22.471 1.548,20.088 c 1.841,6.345 7.601,10.905 14.425,10.905 8.281,0 14.994,-6.713 14.994,-14.994 0,-8.281 -6.713,-14.994 -14.994,-14.994 0,0 -0.001,0 -0.001,0 v 0 z"
       id="path6" />
  </g>
</svg>
